<svg width="217" height="423" viewBox="0 0 217 423" fill="none" xmlns="http://www.w3.org/2000/svg">
<g clip-path="url(#clip0_2_9)">
<rect width="217" height="423" fill="white"/>
<ellipse cx="106" cy="120" rx="87" ry="86" fill="#DC2C2C"/>
<path d="M105 21.2792L124.76 83.831L125.643 86.6262H128.574H192.826L140.749 125.544L138.474 127.244L139.329 129.953L159.161 192.734L107.394 154.048L105 152.259L102.606 154.048L50.8385 192.734L70.6707 129.953L71.5264 127.244L69.251 125.544L17.1738 86.6262H81.426H84.3573L85.2402 83.831L105 21.2792Z" fill="#FFED8C" stroke="#15439C" stroke-width="8"/>
<ellipse cx="113" cy="330" rx="87" ry="86" fill="#DC2C2C"/>
<path d="M112 231.279L131.76 293.831L132.643 296.626H135.574H199.826L147.749 335.544L145.474 337.244L146.329 339.953L166.161 402.734L114.394 364.048L112 362.259L109.606 364.048L57.8385 402.734L77.6707 339.953L78.5264 337.244L76.251 335.544L24.1738 296.626H88.426H91.3573L92.2402 293.831L112 231.279Z" fill="#FFED8C" stroke="#15439C" stroke-width="8"/>
</g>
<defs>
<clipPath id="clip0_2_9">
<rect width="217" height="423" fill="white"/>
</clipPath>
</defs>
</svg>
