<svg width="429" height="212" viewBox="0 0 429 212" fill="none" xmlns="http://www.w3.org/2000/svg">
<g clip-path="url(#clip0_2_2)">
<rect width="429" height="212" fill="white"/>
<ellipse cx="106" cy="120" rx="87" ry="86" fill="#DC2C2C"/>
<path d="M105 21.2792L124.76 83.831L125.643 86.6262H128.574H192.826L140.749 125.544L138.474 127.244L139.329 129.953L159.161 192.734L107.394 154.048L105 152.259L102.606 154.048L50.8385 192.734L70.6707 129.953L71.5264 127.244L69.251 125.544L17.1738 86.6262H81.426H84.3573L85.2402 83.831L105 21.2792Z" fill="#FFED8C" stroke="#15439C" stroke-width="8"/>
<ellipse cx="325" cy="120" rx="87" ry="86" fill="#DC2C2C"/>
<path d="M324 21.2792L343.76 83.831L344.643 86.6262H347.574H411.826L359.749 125.544L357.474 127.244L358.329 129.953L378.161 192.734L326.394 154.048L324 152.259L321.606 154.048L269.839 192.734L289.671 129.953L290.526 127.244L288.251 125.544L236.174 86.6262H300.426H303.357L304.24 83.831L324 21.2792Z" fill="#FFED8C" stroke="#15439C" stroke-width="8"/>
<ellipse cx="325" cy="120" rx="87" ry="86" fill="#DC2C2C"/>
<path d="M324 21.2792L343.76 83.831L344.643 86.6262H347.574H411.826L359.749 125.544L357.474 127.244L358.329 129.953L378.161 192.734L326.394 154.048L324 152.259L321.606 154.048L269.839 192.734L289.671 129.953L290.526 127.244L288.251 125.544L236.174 86.6262H300.426H303.357L304.24 83.831L324 21.2792Z" fill="#FFED8C" stroke="#15439C" stroke-width="8"/>
</g>
<defs>
<clipPath id="clip0_2_2">
<rect width="429" height="212" fill="white"/>
</clipPath>
</defs>
</svg>
